<svg width="20" height="20" viewBox="0 0 20 20" fill="none" xmlns="http://www.w3.org/2000/svg">
<path fill-rule="evenodd" clip-rule="evenodd" d="M7.38482 0C8.30379 0.000966324 9.17928 0.439677 9.72815 1.17312L10.6085 2.3443C10.8877 2.71537 11.3313 2.93666 11.7951 2.93762H14.5288C18.2608 2.93762 19.9992 4.84998 19.9992 8.95589L19.9721 13.7556C19.9712 17.59 17.5882 19.9729 13.7519 19.9729H6.23199C2.38796 19.9729 -0.000793457 17.589 -0.000793457 13.7527V6.21636C-0.000793457 2.09112 1.83426 0 5.45217 0H7.38482ZM7.38385 1.44949H5.45217C2.64597 1.44949 1.44869 2.87578 1.44869 6.21636V13.7527C1.44869 16.8295 3.14749 18.5235 6.23199 18.5235H13.7519C16.8287 18.5235 18.5227 16.8295 18.5227 13.7527V13.7498L18.5497 8.95202C18.5497 5.66749 17.423 4.38711 14.5288 4.38711H11.7942C10.8771 4.38614 10.0016 3.9484 9.45082 3.21592L8.56856 2.04281C8.29123 1.67077 7.84769 1.45045 7.38385 1.44949ZM14.2198 11.8015C14.6199 11.8015 14.9446 12.1262 14.9446 12.5263C14.9446 12.9263 14.6199 13.251 14.2198 13.251H5.77898C5.37892 13.251 5.05424 12.9263 5.05424 12.5263C5.05424 12.1262 5.37892 11.8015 5.77898 11.8015H14.2198Z" fill="black"/>
</svg>
