<svg width="36" height="24" viewBox="0 0 36 24" fill="none" xmlns="http://www.w3.org/2000/svg">
<path d="M15.6731 12.7214L15.6701 12.0132C15.6701 9.06995 15.8424 6.38663 16.1021 4.63741L16.3295 3.54966C16.4561 2.97356 16.6224 2.31761 16.7959 1.98274C17.4308 0.757848 18.6722 0 20.0009 0H20.1166C20.9827 0.0286396 22.8023 0.788691 22.8023 0.815128C25.7303 2.04366 31.3791 5.75144 33.988 8.39478L34.7461 9.18837C34.9447 9.40346 35.1677 9.65801 35.3062 9.85643C35.7687 10.4689 36 11.2267 36 11.9846C36 12.8305 35.7404 13.617 35.2495 14.2603L34.4705 15.1009L34.296 15.2803C31.9288 17.8469 25.7478 22.0437 22.5143 23.3281L22.0262 23.5152C21.4387 23.7257 20.6156 23.9769 20.1166 24C19.4817 24 18.8751 23.8524 18.2969 23.5616C17.5748 23.154 16.9988 22.5107 16.6802 21.7529C16.4773 21.2286 16.1588 19.6534 16.1588 19.6247C15.8668 18.0365 15.6974 15.5304 15.6731 12.7214ZM0 11.9991C0 10.3226 1.34617 8.96332 3.00651 8.96332L10.405 9.61762C11.7075 9.61762 12.7635 10.6839 12.7635 11.9991C12.7635 13.3165 11.7075 14.3806 10.405 14.3806L3.00651 15.0349C1.34617 15.0349 0 13.6756 0 11.9991Z" fill="black"/>
</svg>
