<svg width="36" height="24" viewBox="0 0 36 24" fill="none" xmlns="http://www.w3.org/2000/svg">
<path d="M20.3269 11.2786L20.3299 11.9868C20.3299 14.9301 20.1576 17.6134 19.8979 19.3626L19.6705 20.4503C19.5439 21.0264 19.3776 21.6824 19.2041 22.0173C18.5692 23.2422 17.3278 24 15.9991 24H15.8834C15.0173 23.9714 13.1977 23.2113 13.1977 23.1849C10.2697 21.9563 4.62092 18.2486 2.01199 15.6052L1.25386 14.8116C1.05533 14.5965 0.832281 14.342 0.69381 14.1436C0.23127 13.5311 0 12.7733 0 12.0154C0 11.1695 0.259633 10.383 0.750536 9.73967L1.52946 8.89906L1.70398 8.71966C4.07122 6.15311 10.2522 1.95631 13.4857 0.671929L13.9738 0.484843C14.5613 0.274279 15.3844 0.023132 15.8834 0C16.5183 0 17.1249 0.147604 17.7031 0.438406C18.4252 0.84597 19.0012 1.48926 19.3198 2.24711C19.5227 2.77143 19.8412 4.34661 19.8412 4.37525C20.1332 5.96348 20.3026 8.46964 20.3269 11.2786ZM36 12.0009C36 13.6774 34.6538 15.0367 32.9935 15.0367L25.595 14.3824C24.2925 14.3824 23.2365 13.3161 23.2365 12.0009C23.2365 10.6835 24.2925 9.61939 25.595 9.61939L32.9935 8.96508C34.6538 8.96508 36 10.3244 36 12.0009Z" fill="black"/>
</svg>
