<svg width="40" height="40" viewBox="0 0 40 40" fill="none" xmlns="http://www.w3.org/2000/svg">
<path fill-rule="evenodd" clip-rule="evenodd" d="M1.4996 20.0002C1.4996 6.12621 6.1256 1.50021 19.9996 1.50021C33.8736 1.50021 38.4996 6.12621 38.4996 20.0002C38.4996 33.8742 33.8736 38.5002 19.9996 38.5002C6.1256 38.5002 1.4996 33.8742 1.4996 20.0002Z" stroke="black" stroke-width="2" stroke-linecap="round" stroke-linejoin="round"/>
<path d="M26.2236 23.1338C26.2236 23.8571 26.0732 24.516 25.7725 25.1104C25.4788 25.7048 25.0814 26.2419 24.5801 26.7217C24.0859 27.1943 23.5166 27.6061 22.8721 27.957C22.2347 28.3079 21.5687 28.6016 20.874 28.8379C20.1865 29.0814 19.4954 29.264 18.8008 29.3857C18.1133 29.5146 17.4759 29.5898 16.8887 29.6113L16.7383 29.0742C17.2109 28.974 17.7122 28.8415 18.2422 28.6768C18.7721 28.5192 19.2949 28.3223 19.8105 28.0859C20.3333 27.8568 20.8275 27.5882 21.293 27.2803C21.7656 26.9723 22.181 26.6214 22.5391 26.2275C22.8971 25.8265 23.18 25.3861 23.3877 24.9062C23.6025 24.4193 23.71 23.8822 23.71 23.2949C23.71 22.8509 23.6061 22.4499 23.3984 22.0918C23.1979 21.7266 22.9329 21.4186 22.6035 21.168C22.2812 20.9102 21.9124 20.7132 21.4971 20.5771C21.0889 20.4339 20.6771 20.3623 20.2617 20.3623C19.7676 20.3623 19.2806 20.4232 18.8008 20.5449C18.321 20.6595 17.8483 20.8063 17.3828 20.9854L17.2002 20.5449C17.5225 20.4017 17.8626 20.2298 18.2207 20.0293C18.5859 19.8288 18.9404 19.6068 19.2842 19.3633C19.6351 19.1126 19.9681 18.8405 20.2832 18.5469C20.5983 18.2461 20.874 17.9274 21.1104 17.5908C21.3538 17.2471 21.5472 16.889 21.6904 16.5166C21.8337 16.137 21.9053 15.7396 21.9053 15.3242C21.9053 15.0592 21.8623 14.8193 21.7764 14.6045C21.6976 14.3825 21.5794 14.1927 21.4219 14.0352C21.2643 13.8704 21.0745 13.7451 20.8525 13.6592C20.6377 13.5661 20.3978 13.5195 20.1328 13.5195C19.7031 13.5195 19.3236 13.6126 18.9941 13.7988C18.6719 13.985 18.389 14.2321 18.1455 14.54C17.9092 14.848 17.7087 15.2025 17.5439 15.6035C17.3864 15.9974 17.2575 16.402 17.1572 16.8174C17.0641 17.2327 16.9961 17.6445 16.9531 18.0527C16.9102 18.4538 16.8887 18.8154 16.8887 19.1377V27.4307L14.6758 28.2148V20.3193C14.6758 19.6247 14.7546 18.9479 14.9121 18.2891C15.0697 17.6302 15.2952 17.0072 15.5889 16.4199C15.8896 15.8255 16.2513 15.2812 16.6738 14.7871C17.1035 14.293 17.5833 13.8704 18.1133 13.5195C18.6504 13.1615 19.234 12.8822 19.8643 12.6816C20.5016 12.4811 21.1748 12.3809 21.8838 12.3809C22.2061 12.3809 22.5176 12.4238 22.8184 12.5098C23.1191 12.5957 23.3805 12.7282 23.6025 12.9072C23.8317 13.0863 24.0143 13.3083 24.1504 13.5732C24.2865 13.8382 24.3545 14.1462 24.3545 14.4971C24.3545 14.8766 24.2757 15.2526 24.1182 15.625C23.9678 15.9902 23.7637 16.3483 23.5059 16.6992C23.248 17.0501 22.9544 17.3867 22.625 17.709C22.2956 18.0241 21.9518 18.3177 21.5938 18.5898C21.2428 18.862 20.8919 19.1055 20.541 19.3203C20.1901 19.5352 19.8678 19.7142 19.5742 19.8574C20.3047 19.6855 21.0531 19.5996 21.8193 19.5996C22.3779 19.5996 22.9186 19.6676 23.4414 19.8037C23.9714 19.9326 24.4404 20.1403 24.8486 20.4268C25.264 20.7061 25.597 21.0713 25.8477 21.5225C26.0983 21.9665 26.2236 22.5036 26.2236 23.1338Z" fill="black"/>
</svg>
