<svg width="19" height="19" viewBox="0 0 19 19" fill="none" xmlns="http://www.w3.org/2000/svg">
<path d="M5.155 16.0625C5.94288 16.0625 6.58838 16.7217 6.58838 17.5361C6.58838 18.3408 5.94288 19 5.155 19C4.35762 19 3.71212 18.3408 3.71212 17.5361C3.71212 16.7217 4.35762 16.0625 5.155 16.0625ZM15.8342 16.0625C16.6221 16.0625 17.2676 16.7217 17.2676 17.5361C17.2676 18.3408 16.6221 19 15.8342 19C15.0368 19 14.3913 18.3408 14.3913 17.5361C14.3913 16.7217 15.0368 16.0625 15.8342 16.0625ZM0.739315 0.000113515L0.836053 0.00830139L3.10004 0.356346C3.42279 0.415484 3.6601 0.68597 3.68858 1.01559L3.86894 3.18724C3.89742 3.49844 4.14423 3.73112 4.44799 3.73112H17.2677C17.8468 3.73112 18.2265 3.93471 18.6062 4.38067C18.9859 4.82663 19.0524 5.46649 18.9669 6.04721L18.0651 12.407C17.8943 13.6295 16.8691 14.5302 15.6635 14.5302H5.30707C4.04455 14.5302 3.00037 13.5423 2.89595 12.2626L2.02263 1.69423L0.589246 1.44217C0.209542 1.3743 -0.0562511 0.996205 0.0101971 0.608412C0.0766453 0.211893 0.446857 -0.0508371 0.836053 0.00830139L0.739315 0.000113515ZM14.1447 7.31724H11.5152C11.1165 7.31724 10.8033 7.63717 10.8033 8.04435C10.8033 8.44184 11.1165 8.77146 11.5152 8.77146H14.1447C14.5434 8.77146 14.8566 8.44184 14.8566 8.04435C14.8566 7.63717 14.5434 7.31724 14.1447 7.31724Z" fill="black"/>
</svg>
