<svg width="25" height="25" viewBox="0 0 25 25" fill="none" xmlns="http://www.w3.org/2000/svg">
<path d="M6.77864 21.1363C7.82236 21.1363 8.67109 22.0037 8.67109 23.0688C8.67109 24.1339 7.82236 25 6.77864 25C5.73491 25 4.88494 24.1339 4.88494 23.0688C4.88494 22.0037 5.73491 21.1363 6.77864 21.1363ZM20.8433 21.1363C21.887 21.1363 22.737 22.0037 22.737 23.0688C22.737 24.1339 21.887 25 20.8433 25C19.7996 25 18.9508 24.1339 18.9508 23.0688C18.9508 22.0037 19.7996 21.1363 20.8433 21.1363ZM0.969307 0.000399852L1.09741 0.0126884L3.69859 0.473172C4.11858 0.547156 4.43732 0.903042 4.47232 1.33674L5.67604 15.9702C5.73354 16.6717 6.29727 17.2011 6.98851 17.2011H20.6269C21.2769 17.2011 21.8369 16.7062 21.9306 16.0505L23.1169 7.68402C23.1594 7.38808 23.0269 7.18017 22.9444 7.08195C22.8619 6.985 22.6794 6.82173 22.3856 6.82173H8.95471C8.43722 6.82173 8.01723 6.39313 8.01723 5.86504C8.01723 5.33695 8.43722 4.90836 8.95471 4.90836H22.3856C23.1444 4.90836 23.8656 5.24511 24.3618 5.8306C24.8581 6.41609 25.0818 7.19037 24.9731 7.95827L23.7856 16.3248C23.5606 17.9154 22.2031 19.1145 20.6269 19.1145H6.98851C5.3148 19.1145 3.94733 17.8312 3.80734 16.1296L2.66487 2.2322L0.777413 1.89927C0.267426 1.8087 -0.0738154 1.31378 0.0136824 0.793343C0.10118 0.271631 0.581168 -0.0714998 1.09741 0.0126884L0.969307 0.000399852ZM18.6235 9.62366C19.141 9.62366 19.5609 10.0523 19.5609 10.5803C19.5609 11.1084 19.141 11.537 18.6235 11.537H15.1573C14.6386 11.537 14.2198 11.1084 14.2198 10.5803C14.2198 10.0523 14.6386 9.62366 15.1573 9.62366H18.6235Z" fill="black"/>
</svg>
