<svg width="25" height="25" viewBox="0 0 25 25" fill="none" xmlns="http://www.w3.org/2000/svg">
<path d="M6.78289 21.1348C7.81958 21.1348 8.66892 22.0023 8.66892 23.0738C8.66892 24.1326 7.81958 25 6.78289 25C5.73371 25 4.88437 24.1326 4.88437 23.0738C4.88437 22.0023 5.73371 21.1348 6.78289 21.1348ZM20.8344 21.1348C21.8711 21.1348 22.7205 22.0023 22.7205 23.0738C22.7205 24.1326 21.8711 25 20.8344 25C19.7853 25 18.9359 24.1326 18.9359 23.0738C18.9359 22.0023 19.7853 21.1348 20.8344 21.1348ZM0.972782 0.000149362L1.10007 0.0109229L4.079 0.468876C4.50367 0.54669 4.81592 0.902593 4.8534 1.33631L5.09071 4.19373C5.12818 4.60321 5.45293 4.90937 5.85262 4.90937H22.7207C23.4826 4.90937 23.9822 5.17725 24.4818 5.76404C24.9815 6.35084 25.0689 7.19276 24.9565 7.95686L23.7699 16.325C23.5451 17.9336 22.1961 19.1187 20.6099 19.1187H6.98299C5.32178 19.1187 3.94785 17.8188 3.81046 16.135L2.66135 2.22925L0.775323 1.89759C0.275713 1.80829 -0.0740146 1.3108 0.0134172 0.800542C0.100849 0.278806 0.587969 -0.0668909 1.10007 0.0109229L0.972782 0.000149362ZM18.6114 9.62794H15.1516C14.627 9.62794 14.2148 10.0489 14.2148 10.5847C14.2148 11.1077 14.627 11.5414 15.1516 11.5414H18.6114C19.136 11.5414 19.5482 11.1077 19.5482 10.5847C19.5482 10.0489 19.136 9.62794 18.6114 9.62794Z" fill="black"/>
</svg>
