<svg width="19" height="19" viewBox="0 0 19 19" fill="none" xmlns="http://www.w3.org/2000/svg">
<path d="M5.15176 16.0636C5.94499 16.0636 6.59003 16.7228 6.59003 17.5323C6.59003 18.3418 5.94499 19 5.15176 19C4.35853 19 3.71255 18.3418 3.71255 17.5323C3.71255 16.7228 4.35853 16.0636 5.15176 16.0636ZM15.8409 16.0636C16.6341 16.0636 17.2801 16.7228 17.2801 17.5323C17.2801 18.3418 16.6341 19 15.8409 19C15.0477 19 14.4026 18.3418 14.4026 17.5323C14.4026 16.7228 15.0477 16.0636 15.8409 16.0636ZM0.736674 0.000303887L0.834028 0.00964316L2.81093 0.359611C3.13012 0.415838 3.37236 0.686312 3.39896 1.01592L4.31379 12.1373C4.35749 12.6705 4.78593 13.0728 5.31127 13.0728H15.6765C16.1704 13.0728 16.596 12.6967 16.6673 12.1984L17.5688 5.83985C17.6011 5.61494 17.5004 5.45693 17.4377 5.38228C17.375 5.3086 17.2363 5.18451 17.0131 5.18451H6.80558C6.41229 5.18451 6.0931 4.85878 6.0931 4.45743C6.0931 4.05608 6.41229 3.73035 6.80558 3.73035H17.0131C17.5897 3.73035 18.1378 3.98629 18.515 4.43126C18.8921 4.87623 19.0622 5.46468 18.9795 6.04828L18.077 12.4068C17.906 13.6157 16.8744 14.527 15.6765 14.527H5.31127C4.03925 14.527 2.99997 13.5517 2.89358 12.2585L2.0253 1.69647L0.590834 1.44344C0.203244 1.37461 -0.0560997 0.998472 0.0103987 0.60294C0.076897 0.206439 0.441688 -0.0543399 0.834028 0.00964316L0.736674 0.000303887ZM14.1538 7.31398C14.5471 7.31398 14.8663 7.63972 14.8663 8.04106C14.8663 8.44241 14.5471 8.76814 14.1538 8.76814H11.5195C11.1253 8.76814 10.8071 8.44241 10.8071 8.04106C10.8071 7.63972 11.1253 7.31398 11.5195 7.31398H14.1538Z" fill="black"/>
</svg>
