<svg width="30" height="29" viewBox="0 0 30 29" fill="none" xmlns="http://www.w3.org/2000/svg">
<path d="M13.8451 7.18578V1.17226C13.8451 0.532844 14.3552 0 15.0002 0C15.5777 0 16.0669 0.447737 16.1445 1.01487L16.1551 1.17226V7.18578L23.325 7.18624C26.895 7.18624 29.828 10.1097 29.9927 13.7556L30 14.0791V21.6381C30 25.3096 27.169 28.3233 23.652 28.4925L23.34 28.5H6.66C3.09 28.5 0.171135 25.5912 0.00725668 21.9319L0 21.6071V14.0636C0 10.3922 2.81686 7.36382 6.33299 7.19377L6.645 7.18624H13.845V16.7898L11.445 14.3115C10.995 13.8468 10.26 13.8468 9.81 14.3115C9.585 14.5438 9.48 14.8536 9.48 15.1634C9.48 15.3989 9.5472 15.6442 9.68928 15.8519L9.81 15.9999L14.175 20.5228C14.385 20.7552 14.685 20.8791 15 20.8791C15.25 20.8791 15.5 20.793 15.6979 20.6299L15.81 20.5228L20.175 15.9999C20.625 15.5352 20.625 14.7762 20.175 14.3115C19.7659 13.889 19.1213 13.8506 18.6694 14.1963L18.54 14.3115L16.155 16.7898V7.18624L13.8451 7.18578Z" fill="black"/>
</svg>
