<svg width="30" height="30" viewBox="0 0 30 30" fill="none" xmlns="http://www.w3.org/2000/svg">
<path d="M21.9979 0.0155029C24.1557 -0.119358 26.2835 0.629867 27.8869 2.09835C29.3554 3.70169 30.1046 5.82949 29.9847 8.00224V21.9978C30.1196 24.1705 29.3554 26.2983 27.9019 27.9017C26.2985 29.3701 24.1557 30.1194 21.9979 29.9845H8.0023C5.82953 30.1194 3.70172 29.3701 2.09836 27.9017C0.629872 26.2983 -0.119359 24.1705 0.015503 21.9978V8.00224C-0.119359 5.82949 0.629872 3.70169 2.09836 2.09835C3.70172 0.629867 5.82953 -0.119358 8.0023 0.0155029H21.9979ZM21.6083 6.86342C20.6793 5.93438 19.1808 5.93438 18.2518 6.86342L17.2478 7.88236C17.098 8.03221 17.098 8.28695 17.2478 8.43679C17.2478 8.43679 17.2772 8.46602 17.3296 8.51806L17.6982 8.88463C17.9114 9.09676 18.1775 9.36167 18.4447 9.62806L19.3508 10.5338C19.5399 10.7237 19.6653 10.851 19.6753 10.8643C19.8402 11.0441 19.945 11.2838 19.945 11.5536C19.945 12.093 19.5105 12.5425 18.9561 12.5425C18.7013 12.5425 18.4616 12.4377 18.2967 12.2728L15.7943 9.7854C15.6744 9.66552 15.4646 9.66552 15.3448 9.7854L8.1971 16.933C7.70261 17.4275 7.4179 18.0868 7.40292 18.7911L7.31301 22.3424C7.31301 22.5372 7.37295 22.717 7.50781 22.8519C7.64267 22.9867 7.82249 23.0617 8.01729 23.0617H11.5387C12.2579 23.0617 12.9472 22.777 13.4717 22.2675L23.5563 12.1529C24.4704 11.2239 24.4704 9.72546 23.5563 8.8114L21.6083 6.86342Z" fill="black"/>
</svg>
