<svg width="20" height="19" viewBox="0 0 20 19" fill="none" xmlns="http://www.w3.org/2000/svg">
<path d="M6.27949 0.000925231C6.90947 0.0200846 7.51946 0.130083 8.11045 0.331079H8.16945C8.20945 0.350079 8.23945 0.371079 8.25945 0.390078C8.48045 0.461077 8.68945 0.541076 8.88944 0.651074L9.26944 0.821071C9.41943 0.90107 9.59943 1.05007 9.69943 1.11107C9.79943 1.17007 9.90942 1.23106 9.99942 1.30006C11.1104 0.451077 12.4594 -0.00891493 13.8494 0.000925231C14.4803 0.000925231 15.1103 0.0900834 15.7093 0.29108C19.4003 1.49106 20.7302 5.54099 19.6193 9.08093C18.9893 10.8899 17.9593 12.5409 16.6103 13.8899C14.6793 15.7598 12.5604 17.4198 10.2794 18.8498L10.0294 19.0008L9.76943 18.8398C7.48047 17.4198 5.3495 15.7598 3.40053 13.8799C2.06056 12.5309 1.02957 10.8899 0.389583 9.08093C-0.740398 5.54099 0.58958 1.49106 4.32052 0.27008C4.61051 0.170082 4.90951 0.100083 5.2095 0.0610839H5.3295C5.6105 0.0200846 5.88949 0.000925231 6.16949 0.000925231H6.27949ZM15.1893 3.16103C14.7793 3.02003 14.3294 3.24103 14.1794 3.66102C14.0394 4.08102 14.2594 4.54101 14.6793 4.69001C15.3203 4.93 15.7493 5.56099 15.7493 6.25998V6.29098C15.7303 6.51998 15.7993 6.74097 15.9393 6.91097C16.0793 7.08097 16.2893 7.17997 16.5093 7.20097C16.9193 7.18997 17.2693 6.86097 17.2993 6.43998V6.32098C17.3293 4.92 16.4803 3.65102 15.1893 3.16103Z" fill="black"/>
</svg>
