<svg width="20" height="19" viewBox="0 0 20 19" fill="none" xmlns="http://www.w3.org/2000/svg">
<path d="M10.0059 1.03981C11.6511 -0.0121552 13.6647 -0.281294 15.5206 0.302704C17.1348 0.804693 18.4771 1.95775 19.2354 3.49383C20.122 5.35558 20.2427 7.50082 19.5707 9.45358C18.9521 11.2513 17.938 12.8809 16.6059 14.2178C15.7325 15.1155 14.7914 15.942 13.7912 16.6898L13.7383 16.7347C13.406 16.9584 12.9591 16.8706 12.7324 16.537C12.6171 16.3759 12.5708 16.174 12.6041 15.9776C12.6373 15.7811 12.7473 15.6067 12.9088 15.4942C13.8474 14.7871 14.7323 14.0088 15.5559 13.1661C16.7421 11.9987 17.648 10.5683 18.203 8.98615C18.7368 7.40956 18.6288 5.68086 17.903 4.18598C17.3189 3.01 16.2899 2.12715 15.053 1.74096C13.4753 1.23838 11.7565 1.54305 10.4382 2.55896C10.1762 2.75674 9.81797 2.75674 9.55589 2.55896C8.23819 1.54164 6.5187 1.23684 4.94115 1.74096C3.69596 2.11862 2.65664 2.9988 2.06466 4.17699C1.35526 5.67077 1.25377 7.38955 1.78231 8.95918C2.33967 10.5376 3.24529 11.9645 4.42938 13.1301C6.17901 14.8392 8.10833 16.3465 10.1824 17.6246C10.4461 17.8111 10.5622 18.1493 10.4697 18.4625C10.3773 18.7757 10.0974 18.9927 9.77648 19C9.6318 19.0008 9.49026 18.957 9.37059 18.8741C7.21007 17.5429 5.20077 15.9723 3.37938 14.1908C2.03993 12.8583 1.02208 11.2276 0.405828 9.42661C-0.242989 7.47655 -0.109803 5.34437 0.776419 3.49383C1.5347 1.95775 2.87695 0.804693 4.49115 0.302704C6.34706 -0.281294 8.36066 -0.0121552 10.0059 1.03981ZM13.776 3.99696L13.8883 3.99721C15.2039 4.42033 16.1404 5.60845 16.2618 7.00855L16.2675 7.12589C16.2628 7.28172 16.2096 7.43315 16.1141 7.5575C15.9946 7.71295 15.819 7.81311 15.6265 7.83555C15.2224 7.88874 14.8519 7.59966 14.7971 7.18833C14.7602 6.35762 14.2172 5.63914 13.4383 5.39052C13.1487 5.20632 13.02 4.84441 13.1267 4.51402C13.2334 4.18363 13.5479 3.97024 13.8883 3.99721L13.776 3.99696Z" fill="black"/>
</svg>
