<svg width="24" height="23" viewBox="0 0 24 23" fill="none" xmlns="http://www.w3.org/2000/svg">
<path d="M12.0071 1.24777C13.9813 -0.0145862 16.3977 -0.337553 18.6248 0.363245C20.5618 0.965631 22.1725 2.3493 23.0824 4.19259C24.1464 6.42669 24.2912 9.00098 23.4848 11.3443C22.7425 13.5015 21.5256 15.4571 19.9271 17.0613C18.8791 18.1386 17.7497 19.1304 16.5494 20.0277L16.4859 20.0817C16.0872 20.3501 15.5509 20.2447 15.2788 19.8444C15.1405 19.651 15.085 19.4088 15.1249 19.1731C15.1648 18.9373 15.2967 18.7281 15.4906 18.5931C16.6169 17.7445 17.6787 16.8106 18.6671 15.7993C20.0906 14.3985 21.1776 12.682 21.8436 10.7834C22.4842 8.89148 22.3545 6.81703 21.4836 5.02318C20.7827 3.612 19.5478 2.55258 18.0636 2.08915C16.1704 1.48605 14.1079 1.85166 12.5259 3.07075C12.2114 3.30809 11.7816 3.30809 11.4671 3.07075C9.88582 1.84996 7.82244 1.48421 5.92938 2.08915C4.43515 2.54234 3.18796 3.59856 2.47759 5.01239C1.62631 6.80492 1.50453 8.86746 2.13877 10.751C2.8076 12.6451 3.89434 14.3574 5.31526 15.7561C7.41481 17.8071 9.72999 19.6158 12.2188 21.1496C12.5354 21.3733 12.6746 21.7791 12.5637 22.155C12.4527 22.5308 12.1169 22.7912 11.7318 22.8C11.5582 22.801 11.3883 22.7484 11.2447 22.649C8.65208 21.0515 6.24092 19.1667 4.05525 17.029C2.44792 15.43 1.2265 13.4731 0.486994 11.3119C-0.291587 8.97186 -0.131764 6.41325 0.931703 4.19259C1.84164 2.3493 3.45234 0.965631 5.38938 0.363245C7.61647 -0.337553 10.0328 -0.0145862 12.0071 1.24777ZM16.5312 4.79635L16.6659 4.79665C18.2447 5.30439 19.3685 6.73014 19.5142 8.41026L19.521 8.55107C19.5153 8.73806 19.4515 8.91977 19.3369 9.069C19.1936 9.25554 18.9828 9.37573 18.7518 9.40266C18.2669 9.46649 17.8223 9.11959 17.7565 8.626C17.7123 7.62914 17.0606 6.76697 16.1259 6.46862C15.7784 6.24758 15.624 5.81329 15.7521 5.41683C15.8801 5.02036 16.2575 4.76429 16.6659 4.79665L16.5312 4.79635Z" fill="black"/>
</svg>
