<svg width="24" height="23" viewBox="0 0 24 23" fill="none" xmlns="http://www.w3.org/2000/svg">
<path d="M7.53551 0.000948535C8.29151 0.0239399 9.0235 0.155939 9.73269 0.397136H9.80349C9.85149 0.419936 9.88749 0.445136 9.91149 0.467935C10.1767 0.553134 10.4275 0.649133 10.6675 0.781132L11.1235 0.98513C11.3035 1.08113 11.5195 1.25993 11.6395 1.33313C11.7595 1.40393 11.8915 1.47712 11.9995 1.55992C13.3327 0.541134 14.9514 -0.0108597 16.6194 0.000948535C17.3766 0.000948535 18.1326 0.107939 18.8514 0.349137C23.2805 1.78912 24.8765 6.64907 23.5433 10.897C22.7874 13.0678 21.5514 15.049 19.9326 16.6678C17.6154 18.9117 15.0726 20.9037 12.3355 22.6197L12.0355 22.8009L11.7235 22.6077C8.9767 20.9037 6.41953 18.9117 4.08075 16.6558C2.47277 15.037 1.23558 13.0678 0.467588 10.897C-0.888398 6.64907 0.707586 1.78912 5.18474 0.323937C5.53273 0.203938 5.89153 0.119939 6.25153 0.0731394H6.39553C6.73272 0.0239399 7.06752 0.000948535 7.40352 0.000948535H7.53551ZM18.2274 3.7931C17.7354 3.6239 17.1954 3.8891 17.0154 4.39309C16.8474 4.89709 17.1114 5.44908 17.6154 5.62788C18.3846 5.91588 18.8994 6.67307 18.8994 7.51186V7.54906C18.8766 7.82386 18.9594 8.08905 19.1274 8.29305C19.2954 8.49705 19.5474 8.61585 19.8114 8.64105C20.3034 8.62785 20.7234 8.23305 20.7594 7.72786V7.58506C20.7954 5.90388 19.7766 4.38109 18.2274 3.7931Z" fill="black"/>
</svg>
