<svg width="40" height="40" viewBox="0 0 40 40" fill="none" xmlns="http://www.w3.org/2000/svg">
<path d="M8.14119 28.918C8.14119 28.918 9.76519 25.644 12.1292 25.644C14.4932 25.644 15.7012 28.394 18.3212 28.394C20.9392 28.394 23.8772 21.498 26.8452 21.498C29.8092 21.498 31.9412 26.28 31.9412 26.28" stroke="black" stroke-width="2" stroke-linecap="round" stroke-linejoin="round"/>
<path fill-rule="evenodd" clip-rule="evenodd" d="M16.2786 14.2098C16.2786 15.9298 14.8846 17.3258 13.1626 17.3258C11.4426 17.3258 10.0486 15.9298 10.0486 14.2098C10.0486 12.4898 11.4426 11.0938 13.1626 11.0938C14.8846 11.0958 16.2786 12.4898 16.2786 14.2098Z" stroke="black" stroke-width="2" stroke-linecap="round" stroke-linejoin="round"/>
<path fill-rule="evenodd" clip-rule="evenodd" d="M1.5006 20.0002C1.5006 33.8742 6.1266 38.5002 20.0006 38.5002C33.8746 38.5002 38.5006 33.8742 38.5006 20.0002C38.5006 6.12621 33.8746 1.50021 20.0006 1.50021C6.1266 1.50021 1.5006 6.12621 1.5006 20.0002Z" stroke="black" stroke-width="2" stroke-linecap="round" stroke-linejoin="round"/>
</svg>
