<svg width="40" height="40" viewBox="0 0 40 40" fill="none" xmlns="http://www.w3.org/2000/svg">
<path fill-rule="evenodd" clip-rule="evenodd" d="M17.3776 20.0002C17.3776 22.0462 15.7196 23.7042 13.6736 23.7042C11.6276 23.7042 9.9696 22.0462 9.9696 20.0002C9.9696 17.9542 11.6276 16.2962 13.6736 16.2962H13.6796C15.7236 16.2982 17.3776 17.9562 17.3776 20.0002Z" stroke="black" stroke-width="2" stroke-linecap="round" stroke-linejoin="round"/>
<path d="M17.3836 20.0002H30.0196V23.7042" stroke="black" stroke-width="2" stroke-linecap="round" stroke-linejoin="round"/>
<path d="M24.364 23.7042V20.0002" stroke="black" stroke-width="2" stroke-linecap="round" stroke-linejoin="round"/>
<path fill-rule="evenodd" clip-rule="evenodd" d="M1.4998 20.0002C1.4998 6.12621 6.1258 1.50021 19.9998 1.50021C33.8738 1.50021 38.4998 6.12621 38.4998 20.0002C38.4998 33.8742 33.8738 38.5002 19.9998 38.5002C6.1258 38.5002 1.4998 33.8742 1.4998 20.0002Z" stroke="black" stroke-width="2" stroke-linecap="round" stroke-linejoin="round"/>
</svg>
