<svg width="19" height="19" viewBox="0 0 19 19" fill="none" xmlns="http://www.w3.org/2000/svg">
<path d="M5.62377 10.8962C6.96327 10.8962 8.03676 11.9801 8.03676 13.3291V16.5676C8.03676 17.9071 6.96327 18.9996 5.62377 18.9996H2.41279C1.0828 18.9996 -0.000198364 17.9071 -0.000198364 16.5676V13.3291C-0.000198364 11.9801 1.0828 10.8962 2.41279 10.8962H5.62377ZM16.5868 10.8962C17.9168 10.8962 18.9998 11.9801 18.9998 13.3291V16.5676C18.9998 17.9071 17.9168 18.9996 16.5868 18.9996H13.3758C12.0363 18.9996 10.9628 17.9071 10.9628 16.5676V13.3291C10.9628 11.9801 12.0363 10.8962 13.3758 10.8962H16.5868ZM5.62377 0C6.96327 0 8.03676 1.09249 8.03676 2.43294V5.67147C8.03676 7.02047 6.96327 8.10346 5.62377 8.10346H2.41279C1.0828 8.10346 -0.000198364 7.02047 -0.000198364 5.67147V2.43294C-0.000198364 1.09249 1.0828 0 2.41279 0H5.62377ZM16.5868 0C17.9168 0 18.9998 1.09249 18.9998 2.43294V5.67147C18.9998 7.02047 17.9168 8.10346 16.5868 8.10346H13.3758C12.0363 8.10346 10.9628 7.02047 10.9628 5.67147V2.43294C10.9628 1.09249 12.0363 0 13.3758 0H16.5868Z" fill="black"/>
</svg>
