<svg width="19" height="19" viewBox="0 0 19 19" fill="none" xmlns="http://www.w3.org/2000/svg">
<path fill-rule="evenodd" clip-rule="evenodd" d="M4.14103 10.7179C8.10569 10.7179 8.28205 12.0626 8.28205 14.859C8.28205 16.2601 8.28205 17.2569 7.69354 17.9867C7.01636 18.8275 5.78379 19 4.14103 19C2.49826 19 1.26569 18.8275 0.588513 17.9867C0 17.2569 0 16.2611 0 14.8833L0.730769 14.859H0C0 12.0626 0.176359 10.7179 4.14103 10.7179ZM14.859 10.7179C18.8236 10.7179 19 12.0626 19 14.859C19 16.2601 19 17.2569 18.4115 17.9867C17.7343 18.8275 16.5017 19 14.859 19C13.2162 19 11.9836 18.8275 11.3065 17.9867C10.7179 17.2569 10.7179 16.2611 10.7179 14.8833L11.4487 14.859H10.7179C10.7179 12.0626 10.8943 10.7179 14.859 10.7179ZM4.3419 12.1799L4.14103 12.1795C1.59895 12.1795 1.46859 12.3619 1.4619 14.4956L1.46231 15.3268C1.46693 16.1755 1.49926 16.7885 1.72559 17.0708C1.98379 17.3904 2.75062 17.5385 4.14103 17.5385C5.53144 17.5385 6.29826 17.3894 6.55646 17.0698C6.82051 16.7414 6.82051 15.9619 6.82051 14.8824C6.82051 12.4463 6.82051 12.1914 4.3419 12.1799ZM15.0598 12.1799L14.859 12.1795C12.3169 12.1795 12.1865 12.3619 12.1798 14.4956L12.1803 15.3268C12.1849 16.1755 12.2172 16.7885 12.4435 17.0708C12.7017 17.3904 13.4686 17.5385 14.859 17.5385C16.2494 17.5385 17.0162 17.3894 17.2744 17.0698C17.5385 16.7414 17.5385 15.9619 17.5385 14.8824C17.5385 12.4463 17.5385 12.1914 15.0598 12.1799ZM4.14103 0C8.10569 0 8.28205 1.34462 8.28205 4.14103C8.28205 5.54215 8.28205 6.53892 7.69354 7.26872C7.01636 8.10959 5.78379 8.28205 4.14103 8.28205C2.49826 8.28205 1.26569 8.10959 0.588513 7.26872C0 6.53892 0 5.54313 0 4.16538L0.730769 4.14103H0C0 1.34462 0.176359 0 4.14103 0ZM14.859 0C18.8236 0 19 1.34462 19 4.14103C19 5.54215 19 6.53892 18.4115 7.26872C17.7343 8.10959 16.5017 8.28205 14.859 8.28205C13.2162 8.28205 11.9836 8.10959 11.3065 7.26872C10.7179 6.53892 10.7179 5.54313 10.7179 4.16538L11.4487 4.14103H10.7179C10.7179 1.34462 10.8943 0 14.859 0ZM4.3419 1.46197L4.14103 1.46154C1.59895 1.46154 1.46859 1.64395 1.4619 3.77764L1.46231 4.60889C1.46693 5.45752 1.49926 6.07053 1.72559 6.35282C1.98379 6.67241 2.75062 6.82051 4.14103 6.82051C5.53144 6.82051 6.29826 6.67144 6.55646 6.35185C6.82051 6.02349 6.82051 5.244 6.82051 4.16441C6.82051 1.72831 6.82051 1.47344 4.3419 1.46197ZM15.0598 1.46197L14.859 1.46154C12.3169 1.46154 12.1865 1.64395 12.1798 3.77764L12.1803 4.60889C12.1849 5.45752 12.2172 6.07053 12.4435 6.35282C12.7017 6.67241 13.4686 6.82051 14.859 6.82051C16.2494 6.82051 17.0162 6.67144 17.2744 6.35185C17.5385 6.02349 17.5385 5.244 17.5385 4.16441C17.5385 1.72831 17.5385 1.47344 15.0598 1.46197Z" fill="black"/>
</svg>
