<svg width="20" height="20" viewBox="0 0 20 20" fill="none" xmlns="http://www.w3.org/2000/svg">
<path fill-rule="evenodd" clip-rule="evenodd" d="M4.35897 11.2821C8.53231 11.2821 8.71795 12.6974 8.71795 15.641C8.71795 17.1159 8.71795 18.1651 8.09846 18.9333C7.38564 19.8185 6.08821 20 4.35897 20C2.62974 20 1.33231 19.8185 0.619487 18.9333C0 18.1651 0 17.1169 0 15.6667L0.769231 15.641H0C0 12.6974 0.185641 11.2821 4.35897 11.2821ZM15.641 11.2821C19.8144 11.2821 20 12.6974 20 15.641C20 17.1159 20 18.1651 19.3805 18.9333C18.6677 19.8185 17.3703 20 15.641 20C13.9118 20 12.6144 19.8185 11.9015 18.9333C11.2821 18.1651 11.2821 17.1169 11.2821 15.6667L12.0513 15.641H11.2821C11.2821 12.6974 11.4677 11.2821 15.641 11.2821ZM4.57042 12.821L4.35897 12.8205C1.6831 12.8205 1.54588 13.0125 1.53884 15.2585L1.53927 16.1335C1.54413 17.0268 1.57817 17.6721 1.81641 17.9692C2.08821 18.3056 2.89538 18.4615 4.35897 18.4615C5.82256 18.4615 6.62974 18.3046 6.90154 17.9682C7.17949 17.6226 7.17949 16.8021 7.17949 15.6656C7.17949 13.1013 7.17949 12.833 4.57042 12.821ZM15.8525 12.821L15.641 12.8205C12.9652 12.8205 12.8279 13.0125 12.8209 15.2585L12.8213 16.1335C12.8262 17.0268 12.8602 17.6721 13.0985 17.9692C13.3703 18.3056 14.1774 18.4615 15.641 18.4615C17.1046 18.4615 17.9118 18.3046 18.1836 17.9682C18.4615 17.6226 18.4615 16.8021 18.4615 15.6656C18.4615 13.1013 18.4615 12.833 15.8525 12.821ZM4.35897 0C8.53231 0 8.71795 1.41538 8.71795 4.35897C8.71795 5.83385 8.71795 6.88308 8.09846 7.65128C7.38564 8.53641 6.08821 8.71795 4.35897 8.71795C2.62974 8.71795 1.33231 8.53641 0.619487 7.65128C0 6.88308 0 5.83487 0 4.38462L0.769231 4.35897H0C0 1.41538 0.185641 0 4.35897 0ZM15.641 0C19.8144 0 20 1.41538 20 4.35897C20 5.83385 20 6.88308 19.3805 7.65128C18.6677 8.53641 17.3703 8.71795 15.641 8.71795C13.9118 8.71795 12.6144 8.53641 11.9015 7.65128C11.2821 6.88308 11.2821 5.83487 11.2821 4.38462L12.0513 4.35897H11.2821C11.2821 1.41538 11.4677 0 15.641 0ZM4.57042 1.53892L4.35897 1.53846C1.6831 1.53846 1.54588 1.73048 1.53884 3.97646L1.53927 4.85147C1.54413 5.74476 1.57817 6.39004 1.81641 6.68718C2.08821 7.02359 2.89538 7.17949 4.35897 7.17949C5.82256 7.17949 6.62974 7.02256 6.90154 6.68615C7.17949 6.34051 7.17949 5.52 7.17949 4.38359C7.17949 1.81928 7.17949 1.55099 4.57042 1.53892ZM15.8525 1.53892L15.641 1.53846C12.9652 1.53846 12.8279 1.73048 12.8209 3.97646L12.8213 4.85147C12.8262 5.74476 12.8602 6.39004 13.0985 6.68718C13.3703 7.02359 14.1774 7.17949 15.641 7.17949C17.1046 7.17949 17.9118 7.02256 18.1836 6.68615C18.4615 6.34051 18.4615 5.52 18.4615 4.38359C18.4615 1.81928 18.4615 1.55099 15.8525 1.53892Z" fill="black"/>
</svg>
