<svg width="25" height="23" viewBox="0 0 25 23" fill="none" xmlns="http://www.w3.org/2000/svg">
<path d="M19.82 0C22.675 0 24.9988 2.30128 24.9988 5.13143L25 8.47806C25 8.7233 24.9013 8.95987 24.725 9.13451C24.55 9.30915 24.3113 9.407 24.0625 9.407C23.0363 9.407 22.2012 10.2344 22.2012 11.2512C22.2012 12.2681 23.0363 13.0955 24.0625 13.0955C24.58 13.0955 25 13.5116 25 14.0244V17.3686C25 20.1987 22.6775 22.5 19.8225 22.5H12.9938C12.4763 22.5 12.0563 22.0838 12.0563 21.5711C12.0563 21.0583 12.4763 20.6421 12.9938 20.6421H19.8225C21.6437 20.6421 23.125 19.1732 23.125 17.3686V14.8357C21.5175 14.4232 20.3262 12.9729 20.3262 11.2512C20.3262 9.52962 21.5163 8.07924 23.125 7.6668L23.1238 5.13143C23.1238 3.32682 21.6412 1.85787 19.82 1.85787H5.18C3.35875 1.85787 1.8775 3.32682 1.8775 5.13143L1.87625 7.76588C3.5025 8.15727 4.67375 9.54819 4.67375 11.2512C4.67375 12.9729 3.48375 14.4232 1.875 14.8357V17.3686C1.875 19.1732 3.3575 20.6421 5.17875 20.6421H7.41625C7.93375 20.6421 8.35375 21.0583 8.35375 21.5711C8.35375 22.0838 7.93375 22.5 7.41625 22.5H5.17875C2.3225 22.5 0 20.1987 0 17.3686V14.0244C0 13.5116 0.42 13.0955 0.9375 13.0955C1.96375 13.0955 2.79875 12.2681 2.79875 11.2512C2.79875 10.2604 1.99875 9.51475 0.9375 9.51475C0.68875 9.51475 0.45 9.41691 0.275 9.24227C0.09875 9.06763 0 8.83106 0 8.58582L0.0025 5.13143C0.0025 2.30128 2.325 0 5.18 0H19.82ZM12.5415 6.25C13.0077 6.25 13.4235 6.51472 13.6302 6.94284L14.6142 8.87571C14.8516 9.34436 14.6769 9.92194 14.223 10.1651C14.0053 10.2842 13.7544 10.3057 13.5194 10.2323C13.282 10.1563 13.0889 9.99034 12.9733 9.76488L12.56 8.95424L12.0003 10.1221C11.865 10.4033 11.6055 10.5996 11.3029 10.6439L10.0925 10.825L10.9683 11.7066C11.1872 11.9245 11.2869 12.2399 11.2352 12.5502L11.0286 13.7927L12.1135 13.2063C12.3841 13.0606 12.7064 13.0606 12.9745 13.2063L14.0594 13.7927L13.8528 12.5502C13.8011 12.2399 13.9008 11.9245 14.1185 11.7054L15.9267 9.89155C16.1026 9.71675 16.34 9.60275 16.5811 9.62049C16.8296 9.62302 17.062 9.72435 17.2367 9.90928C17.4102 10.0917 17.5024 10.3323 17.5 10.5869C17.4963 10.8415 17.3979 11.0796 17.2195 11.257L15.7606 12.7225L16.1051 14.7896C16.1838 15.2608 15.9993 15.7294 15.6229 16.0093C15.2452 16.2905 14.7581 16.3247 14.3461 16.1031L12.5428 15.1303L10.7395 16.1043C10.566 16.2006 10.3705 16.25 10.1749 16.25C9.91903 16.25 9.67302 16.1664 9.46391 16.0093C9.08874 15.7294 8.903 15.2608 8.98172 14.7896L9.32737 12.7225L7.86728 11.257C7.53393 10.9238 7.41707 10.4337 7.55976 9.97768C7.70491 9.52296 8.08008 9.19743 8.54012 9.1303L10.555 8.82758L11.4578 6.94538C11.662 6.51726 12.0778 6.25127 12.5415 6.25Z" fill="black"/>
</svg>
