<svg width="25" height="23" viewBox="0 0 25 23" fill="none" xmlns="http://www.w3.org/2000/svg">
<path d="M19.82 0C22.675 0 24.9988 2.30252 24.9988 5.13143L25 8.47806C25 8.7233 24.9013 8.96111 24.7263 9.13451C24.55 9.30915 24.3125 9.407 24.0625 9.407C23.0363 9.407 22.2012 10.2344 22.2012 11.2512C22.2012 12.2681 23.0363 13.0955 24.0625 13.0955C24.58 13.0955 25 13.5116 25 14.0244V17.3698C25 20.1987 22.6775 22.5 19.8225 22.5H5.17875C2.32375 22.5 0 20.1987 0 17.3698V14.0244C0 13.5116 0.42 13.0955 0.9375 13.0955C1.965 13.0955 2.8 12.2681 2.8 11.2512C2.8 10.2604 1.99875 9.51475 0.9375 9.51475C0.68875 9.51475 0.45125 9.41691 0.275 9.24227C0.09875 9.06763 0 8.83106 0 8.58582L0.0025 5.13143C0.0025 2.30252 2.325 0 5.18 0H19.82ZM12.5025 6.44184C12.1475 6.44184 11.83 6.63754 11.6712 6.95214L10.76 8.78151L8.7275 9.07506C8.37625 9.1246 8.08875 9.36241 7.9775 9.69682C7.8675 10.0312 7.95625 10.3929 8.21125 10.6381L9.685 12.06L9.3375 14.0702C9.2775 14.417 9.41875 14.7614 9.70625 14.9682C9.86875 15.0834 10.0575 15.1428 10.2488 15.1428C10.395 15.1428 10.5425 15.1069 10.6775 15.0363L12.5 14.0876L14.3187 15.0339C14.6337 15.2011 15.0075 15.1751 15.2937 14.967C15.5825 14.7614 15.7238 14.417 15.6638 14.0702L15.315 12.06L16.7887 10.6381C17.045 10.3929 17.1338 10.0312 17.0225 9.69682C16.9125 9.36241 16.625 9.1246 16.2775 9.0763L14.2412 8.78151L13.33 6.95337C13.1737 6.63878 12.8562 6.44308 12.5025 6.44184Z" fill="black"/>
</svg>
