<svg width="22" height="19" viewBox="0 0 22 19" fill="none" xmlns="http://www.w3.org/2000/svg">
<path d="M16.7369 0C19.1478 0 21.1101 1.94435 21.1101 4.33321L21.1111 7.15925C21.1111 7.36634 21.0277 7.56716 20.8799 7.71359C20.7311 7.86106 20.5306 7.94369 20.3194 7.94369C19.4528 7.94369 18.7477 8.64235 18.7477 9.50105C18.7477 10.3597 19.4528 11.0584 20.3194 11.0584C20.7564 11.0584 21.1111 11.4098 21.1111 11.8428V14.6678C21.1111 17.0567 19.1499 19 16.739 19H4.37317C1.96228 19 0 17.0567 0 14.6678V11.8428C0 11.4098 0.354667 11.0584 0.791667 11.0584C1.65933 11.0584 2.36444 10.3597 2.36444 9.50105C2.36444 8.66432 1.68783 8.03468 0.791667 8.03468C0.581611 8.03468 0.381056 7.95205 0.232222 7.80458C0.0833889 7.65711 0 7.45734 0 7.25025L0.00211111 4.33321C0.00211111 1.94435 1.96333 0 4.37422 0H16.7369ZM10.5577 5.43978C10.2579 5.43978 9.98978 5.60503 9.85572 5.87069L9.08622 7.4155L7.36989 7.66338C7.07328 7.70522 6.8305 7.90603 6.73656 8.18843C6.64367 8.47082 6.71861 8.77623 6.93394 8.98332L8.17844 10.184L7.885 11.8815C7.83433 12.1744 7.95361 12.4652 8.19639 12.6398C8.33361 12.7371 8.493 12.7873 8.6545 12.7873C8.778 12.7873 8.90256 12.757 9.01656 12.6973L10.5556 11.8962L12.0914 12.6953C12.3574 12.8365 12.673 12.8145 12.9147 12.6388C13.1586 12.4652 13.2778 12.1744 13.2272 11.8815L12.9327 10.184L14.1772 8.98332C14.3936 8.77623 14.4685 8.47082 14.3746 8.18843C14.2817 7.90603 14.0389 7.70522 13.7454 7.66443L12.0259 7.4155L11.2564 5.87174C11.1245 5.60608 10.8564 5.44082 10.5577 5.43978Z" fill="black"/>
</svg>
