<svg width="22" height="19" viewBox="0 0 22 19" fill="none" xmlns="http://www.w3.org/2000/svg">
<path d="M16.7369 0C19.1478 0 21.1101 1.9433 21.1101 4.33321L21.1111 7.15925C21.1111 7.36634 21.0277 7.56611 20.8789 7.71359C20.7311 7.86106 20.5295 7.94369 20.3194 7.94369C19.4528 7.94369 18.7477 8.64235 18.7477 9.50105C18.7477 10.3597 19.4528 11.0584 20.3194 11.0584C20.7564 11.0584 21.1111 11.4098 21.1111 11.8428V14.6668C21.1111 17.0567 19.1499 19 16.739 19H10.9725C10.5355 19 10.1808 18.6486 10.1808 18.2156C10.1808 17.7826 10.5355 17.4311 10.9725 17.4311H16.739C18.2769 17.4311 19.5278 16.1907 19.5278 14.6668V12.5279C18.1703 12.1796 17.1644 10.9549 17.1644 9.50105C17.1644 8.04723 18.1693 6.82247 19.5278 6.47418L19.5267 4.33321C19.5267 2.80931 18.2748 1.56886 16.7369 1.56886H4.37422C2.83628 1.56886 1.58544 2.80931 1.58544 4.33321L1.58439 6.55786C2.95767 6.88836 3.94672 8.06292 3.94672 9.50105C3.94672 10.9549 2.94183 12.1796 1.58333 12.5279V14.6668C1.58333 16.1907 2.83522 17.4311 4.37317 17.4311H6.26261C6.69961 17.4311 7.05428 17.7826 7.05428 18.2156C7.05428 18.6486 6.69961 19 6.26261 19H4.37317C1.96122 19 0 17.0567 0 14.6668V11.8428C0 11.4098 0.354667 11.0584 0.791667 11.0584C1.65828 11.0584 2.36339 10.3597 2.36339 9.50105C2.36339 8.66432 1.68783 8.03468 0.791667 8.03468C0.581611 8.03468 0.38 7.95205 0.232222 7.80458C0.0833889 7.65711 0 7.45734 0 7.25025L0.00211111 4.33321C0.00211111 1.9433 1.96333 0 4.37422 0H16.7369ZM10.5906 5.27778C10.9843 5.27778 11.3354 5.50132 11.5099 5.86285L12.3409 7.49505C12.5414 7.8908 12.3939 8.37853 12.0106 8.58389C11.8267 8.68443 11.6148 8.70262 11.4164 8.64058C11.2159 8.57641 11.0529 8.43629 10.9552 8.2459L10.6062 7.56136L10.1336 8.54753C10.0193 8.78498 9.80016 8.95076 9.54464 8.9882L8.52253 9.14115L9.26211 9.88559C9.447 10.0696 9.53114 10.3359 9.48751 10.5979L9.313 11.6472L10.2292 11.152C10.4577 11.029 10.7298 11.029 10.9563 11.152L11.8724 11.6472L11.6979 10.5979C11.6543 10.3359 11.7384 10.0696 11.9223 9.88452L13.4492 8.35286C13.5977 8.20526 13.7982 8.10899 14.0018 8.12397C14.2116 8.12611 14.408 8.21167 14.5555 8.36784C14.7019 8.52186 14.7798 8.72508 14.7778 8.94007C14.7746 9.15506 14.6915 9.35614 14.5409 9.50588L13.309 10.7434L13.5998 12.489C13.6663 12.8869 13.5105 13.2826 13.1926 13.519C12.8738 13.7564 12.4624 13.7853 12.1144 13.5982L10.5917 12.7767L9.0689 13.5992C8.92244 13.6805 8.75728 13.7222 8.59213 13.7222C8.37607 13.7222 8.16833 13.6516 7.99174 13.519C7.67493 13.2826 7.51809 12.8869 7.58456 12.489L7.87645 10.7434L6.64348 9.50588C6.36198 9.22458 6.26331 8.81065 6.3838 8.42559C6.50637 8.04161 6.82318 7.76672 7.21166 7.71003L8.91309 7.4544L9.67552 5.86499C9.84795 5.50346 10.199 5.27885 10.5906 5.27778Z" fill="black"/>
</svg>
