<svg width="30" height="30" viewBox="0 0 30 30" fill="none" xmlns="http://www.w3.org/2000/svg">
<path d="M29.1531 0.872974C28.4028 0.102897 27.2923 -0.183994 26.2569 0.117997L2.11199 7.13929C1.01955 7.44279 0.245231 8.31403 0.0366452 9.42083C-0.176442 10.5473 0.567863 11.9772 1.54026 12.5751L9.08985 17.2152C9.86417 17.6909 10.8636 17.5716 11.5043 16.9253L20.1494 8.22645C20.5846 7.77347 21.3049 7.77347 21.74 8.22645C22.1752 8.66434 22.1752 9.37402 21.74 9.82701L13.08 18.5274C12.4377 19.1721 12.3177 20.1762 12.7904 20.9554L17.4033 28.5806C17.9435 29.4866 18.8739 30 19.8943 30C20.0143 30 20.1494 30 20.2694 29.9849C21.4399 29.8339 22.3703 29.0336 22.7154 27.9012L29.8734 3.78719C30.1885 2.76042 29.9034 1.64305 29.1531 0.872974Z" fill="black"/>
</svg>
