<svg width="40" height="40" viewBox="0 0 40 40" fill="none" xmlns="http://www.w3.org/2000/svg">
<path d="M26.8682 10.9601C27.4542 10.3704 28.4022 10.3704 28.9882 10.9601C29.5742 11.5499 29.5742 12.506 28.9882 13.0958L18.1798 23.9754L25.7681 36.5399C26.0441 36.9968 26.4781 36.9928 26.6581 36.9726C26.8342 36.9485 27.2602 36.8398 27.4122 36.3285L32.0563 20.6985C32.2963 19.8973 33.1304 19.4424 33.9244 19.684C34.7184 19.9235 35.1704 20.7649 34.9324 21.564L30.2883 37.192C29.8383 38.7037 28.5942 39.7665 27.0402 39.9658C26.8662 39.9899 26.6941 40 26.5221 40C25.1661 40 23.926 39.3035 23.204 38.1079L15.0037 24.529C14.6457 23.9332 14.7357 23.1683 15.2257 22.6771L26.8682 10.9601ZM35.0078 0.154588C36.3779 -0.243963 37.8619 0.140498 38.868 1.16505C39.874 2.1876 40.246 3.67915 39.836 5.05998L37.3379 13.4638C37.0999 14.2629 36.2679 14.7158 35.4719 14.4783C34.6778 14.2387 34.2258 13.3973 34.4638 12.6002L36.9619 4.19444C37.1019 3.72343 36.8519 3.40539 36.7379 3.29066C36.6239 3.17391 36.3039 2.92029 35.8419 3.05515L3.65874 12.413C3.14673 12.562 3.03472 12.9907 3.01072 13.1679C2.98872 13.345 2.98072 13.7878 3.43674 14.0696L10.209 18.2363C10.915 18.6711 11.139 19.601 10.705 20.3136C10.423 20.7766 9.93096 21.0342 9.42494 21.0342C9.15894 21.0342 8.88893 20.9638 8.64492 20.8128L1.87268 16.6441C0.530635 15.8188 -0.173389 14.3333 0.0366181 12.7653C0.246625 11.1952 1.31666 9.94927 2.82672 9.51047L35.0078 0.154588Z" fill="black"/>
</svg>
