<svg width="24" height="24" viewBox="0 0 24 24" fill="none" xmlns="http://www.w3.org/2000/svg">
<path fill-rule="evenodd" clip-rule="evenodd" d="M12 9.10526C13.787 9.10526 15.2353 10.4011 15.2353 12C15.2353 13.5989 13.787 14.8947 12 14.8947C10.213 14.8947 8.76471 13.5989 8.76471 12C8.76471 10.4011 10.213 9.10526 12 9.10526Z" stroke="black" stroke-width="1.5" stroke-linecap="round" stroke-linejoin="round"/>
<path fill-rule="evenodd" clip-rule="evenodd" d="M22.5704 6.50029C21.6858 5.11978 19.7275 4.64741 18.1969 5.44461C16.8656 6.13657 15.2017 5.27076 15.2017 3.88568C15.2017 2.29244 13.7676 1 11.9997 1C10.2318 1 8.79766 2.29244 8.79766 3.88568C8.79766 5.27076 7.13382 6.13657 5.80376 5.44461C4.27191 4.64741 2.31362 5.11978 1.42903 6.50029C0.545714 7.88079 1.06987 9.64559 2.60172 10.4416C3.93178 11.1348 3.93178 12.8652 2.60172 13.5584C1.06987 14.3555 0.545714 16.1204 1.42903 17.4997C2.31362 18.8802 4.27191 19.3526 5.80249 18.5565H5.80376C7.13382 17.8634 8.79766 18.7292 8.79766 20.1143C8.79766 21.7076 10.2318 23 11.9997 23C13.7676 23 15.2017 21.7076 15.2017 20.1143C15.2017 18.7292 16.8656 17.8634 18.1969 18.5565C19.7275 19.3526 21.6858 18.8802 22.5704 17.4997C23.4549 16.1204 22.9295 14.3555 21.3989 13.5584H21.3977C20.0676 12.8652 20.0676 11.1348 21.3989 10.4416C22.9295 9.64559 23.4549 7.88079 22.5704 6.50029Z" stroke="black" stroke-width="1.5" stroke-linecap="round" stroke-linejoin="round"/>
</svg>
