<svg width="20" height="19" viewBox="0 0 20 19" fill="none" xmlns="http://www.w3.org/2000/svg">
<path d="M13.6197 0C16.8447 0 19.0105 2.25821 19.0105 5.61838V13.3816C19.0105 16.7418 16.8447 19 13.6197 19H10.4577C10.0634 19 9.74335 18.68 9.74335 18.2857C9.74335 17.8914 10.0634 17.5714 10.4577 17.5714H13.6197C16.0265 17.5714 17.5818 15.9265 17.5818 13.3816V5.61838C17.5818 3.07254 16.0265 1.42864 13.6197 1.42864H5.38122C2.98015 1.42864 1.42864 3.07254 1.42864 5.61838V13.3816C1.42864 15.9265 2.98015 17.5714 5.38122 17.5714H6.06792C6.46223 17.5714 6.78225 17.8914 6.78225 18.2857C6.78225 18.68 6.46223 19 6.06792 19H5.38122C2.16297 19 0 16.7418 0 13.3816V5.61838C0 2.25821 2.16297 0 5.38122 0H13.6197ZM12.6592 9.08941C13.3173 9.06941 13.9612 9.3199 14.4202 9.79325L16.3984 11.8324C16.6727 12.1162 16.6661 12.5686 16.3823 12.8429C16.0994 13.1182 15.647 13.1096 15.3727 12.8277L13.3945 10.7885C13.2154 10.6038 12.9811 10.5 12.7173 10.5171C12.4601 10.5276 12.2287 10.6438 12.0649 10.8428L9.94193 13.4258C9.56762 13.8811 9.01521 14.1573 8.42661 14.183C7.83706 14.1954 7.2637 13.982 6.85034 13.562L6.00649 12.701C5.88268 12.5734 5.72553 12.461 5.55028 12.5048C5.37789 12.5058 5.21883 12.5753 5.10073 12.6991L3.64352 14.2373C3.50351 14.3859 3.31493 14.4602 3.1254 14.4602C2.9492 14.4602 2.77204 14.3954 2.63394 14.2649C2.34821 13.9935 2.33583 13.5411 2.60727 13.2544L4.06354 11.7172C4.45213 11.3057 4.97787 11.0781 5.54456 11.0762C6.09126 11.1124 6.6389 11.2981 7.03131 11.7057L7.8704 12.561C8.00088 12.6944 8.17231 12.7686 8.36375 12.7553C8.55043 12.7467 8.71901 12.6629 8.83806 12.5182L10.961 9.93517C11.3801 9.42562 11.9992 9.11703 12.6592 9.08941ZM6.24822 4.40936C7.56257 4.40936 8.63215 5.47894 8.63215 6.79425C8.63215 8.10955 7.56257 9.17913 6.24822 9.17913C4.93291 9.17913 3.86334 8.10955 3.86334 6.79425C3.86334 5.47894 4.93291 4.40936 6.24822 4.40936ZM6.24822 5.83801C5.72057 5.83801 5.29198 6.2666 5.29198 6.79425C5.29198 7.32189 5.72057 7.75048 6.24822 7.75048C6.77491 7.75048 7.2035 7.32189 7.2035 6.79425C7.2035 6.2666 6.77491 5.83801 6.24822 5.83801Z" fill="black"/>
</svg>
