<svg width="25" height="25" viewBox="0 0 25 25" fill="none" xmlns="http://www.w3.org/2000/svg">
<path d="M17.9173 0C22.1539 0 25 2.97264 25 7.3959V17.6041C25 22.0274 22.1539 25 17.916 25H7.08273C2.84612 25 0 22.0274 0 17.6041V7.3959C0 2.97264 2.84612 0 7.08273 0H17.9173ZM19.2957 13.1876C17.9558 12.3517 16.9213 13.5255 16.6423 13.9009C16.3733 14.2634 16.142 14.6633 15.8981 15.0632C15.3023 16.0501 14.6198 17.1878 13.4383 17.8496C11.7212 18.8003 10.4178 17.9244 9.48005 17.2872C9.1281 17.0498 8.78621 16.8253 8.44557 16.6757C7.60591 16.3132 6.85047 16.726 5.72925 18.1502C5.14099 18.8945 4.55776 19.6324 3.96698 20.3676C3.61377 20.8075 3.69799 21.4861 4.17438 21.7802C4.93485 22.2485 5.86249 22.5 6.91081 22.5H17.4455C18.04 22.5 18.6358 22.4187 19.204 22.233C20.4836 21.815 21.4992 20.8578 22.0297 19.5937C22.4771 18.5307 22.6946 17.2407 22.276 16.1674C22.1365 15.8114 21.9278 15.4799 21.635 15.1883C20.867 14.426 20.1492 13.7139 19.2957 13.1876ZM8.12357 5C6.40027 5 5 6.40216 5 8.125C5 9.84784 6.40027 11.25 8.12357 11.25C9.84562 11.25 11.2471 9.84784 11.2471 8.125C11.2471 6.40216 9.84562 5 8.12357 5Z" fill="black"/>
</svg>
