<svg width="25" height="25" viewBox="0 0 25 25" fill="none" xmlns="http://www.w3.org/2000/svg">
<path d="M17.9108 0C22.1518 0 25 2.96969 25 7.38853V17.5977C25 22.0165 22.1518 24.9862 17.9108 24.9862H13.7525C13.234 24.9862 12.8131 24.5654 12.8131 24.0468C12.8131 23.5283 13.234 23.1075 13.7525 23.1075H17.9108C21.0759 23.1075 23.1212 20.9444 23.1212 17.5977V7.38853C23.1212 4.04058 21.0759 1.87876 17.9108 1.87876H7.07665C3.91909 1.87876 1.87876 4.04058 1.87876 7.38853V17.5977C1.87876 20.9444 3.91909 23.1075 7.07665 23.1075H7.97971C8.49825 23.1075 8.91909 23.5283 8.91909 24.0468C8.91909 24.5654 8.49825 24.9862 7.97971 24.9862H7.07665C2.84444 24.9862 0 22.0165 0 17.5977V7.38853C0 2.96969 2.84444 0 7.07665 0H17.9108ZM16.6477 11.9532C17.5132 11.9269 18.3598 12.2563 18.9636 12.8788L21.565 15.5604C21.9257 15.9336 21.917 16.5286 21.5437 16.8893C21.1717 17.2513 20.5768 17.24 20.2161 16.8692L17.6146 14.1876C17.3791 13.9446 17.071 13.8081 16.7241 13.8307C16.3859 13.8444 16.0815 13.9972 15.8661 14.259L13.0743 17.6558C12.582 18.2545 11.8556 18.6177 11.0815 18.6516C10.3062 18.6678 9.55223 18.3873 9.00864 17.8349L7.89892 16.7027C7.7361 16.5348 7.52943 16.387 7.29897 16.4446C7.07227 16.4459 6.8631 16.5373 6.70779 16.7002L4.79146 18.7229C4.60734 18.9183 4.35934 19.016 4.1101 19.016C3.87838 19.016 3.64542 18.9309 3.4638 18.7593C3.08805 18.4023 3.07177 17.8074 3.42873 17.4304L5.34381 15.4088C5.85483 14.8677 6.54622 14.5684 7.29146 14.5659C8.0104 14.6135 8.73059 14.8577 9.24662 15.3938L10.3501 16.5185C10.5217 16.6939 10.7471 16.7916 10.9989 16.774C11.2444 16.7628 11.4661 16.6526 11.6226 16.4622L14.4145 13.0654C14.9656 12.3953 15.7797 11.9895 16.6477 11.9532ZM8.21681 5.7986C9.94527 5.7986 11.3518 7.20516 11.3518 8.93487C11.3518 10.6646 9.94527 12.0711 8.21681 12.0711C6.4871 12.0711 5.08054 10.6646 5.08054 8.93487C5.08054 7.20516 6.4871 5.7986 8.21681 5.7986ZM8.21681 7.67736C7.52292 7.67736 6.95929 8.24098 6.95929 8.93487C6.95929 9.62876 7.52292 10.1924 8.21681 10.1924C8.90944 10.1924 9.47307 9.62876 9.47307 8.93487C9.47307 8.24098 8.90944 7.67736 8.21681 7.67736Z" fill="black"/>
</svg>
