<svg width="19" height="19" viewBox="0 0 19 19" fill="none" xmlns="http://www.w3.org/2000/svg">
<path d="M13.6171 0C16.8369 0 19 2.25921 19 5.62088V13.3791C19 16.7408 16.8369 19 13.6162 19H5.38287C2.16305 19 0 16.7408 0 13.3791V5.62088C0 2.25921 2.16305 0 5.38287 0H13.6171ZM14.6648 10.0225C13.6464 9.38725 12.8602 10.2794 12.6481 10.5647C12.4437 10.8402 12.2679 11.1441 12.0826 11.448C11.6298 12.198 11.1111 13.0627 10.2131 13.5657C8.90814 14.2882 7.91749 13.6225 7.20484 13.1382C6.93736 12.9578 6.67752 12.7873 6.41863 12.6735C5.78049 12.398 5.20636 12.7118 4.35423 13.7941C3.90715 14.3598 3.46389 14.9206 3.0149 15.4794C2.74647 15.8137 2.81047 16.3294 3.17253 16.5529C3.75048 16.9088 4.45549 17.1 5.25221 17.1H13.2586C13.7104 17.1 14.1632 17.0382 14.595 16.8971C15.5675 16.5794 16.3394 15.852 16.7425 14.8912C17.0826 14.0833 17.2479 13.1029 16.9298 12.2873C16.8237 12.0167 16.6652 11.7647 16.4426 11.5431C15.8589 10.9637 15.3134 10.4225 14.6648 10.0225ZM6.17391 3.8C4.8642 3.8 3.8 4.86564 3.8 6.175C3.8 7.48436 4.8642 8.55 6.17391 8.55C7.48267 8.55 8.54783 7.48436 8.54783 6.175C8.54783 4.86564 7.48267 3.8 6.17391 3.8Z" fill="black"/>
</svg>
